<?xml version="1.0" encoding="utf-8"?>
<!-- Generator: Adobe Illustrator 22.0.0, SVG Export Plug-In . SVG Version: 6.00 Build 0)  -->
<svg version="1.1" id="Layer_1" xmlns="http://www.w3.org/2000/svg" xmlns:xlink="http://www.w3.org/1999/xlink" x="0px" y="0px"
	 viewBox="0 0 1082 341" style="enable-background:new 0 0 1082 341;" xml:space="preserve">
<style type="text/css">
	.st0{fill:#FFFFFF;}
</style>
<g>
	<g>
		<path class="st0" d="M364.6,189.7V21.5h22.1v74.1h101V21.5h22.1v168.2h-22.1v-76.5h-101v76.5H364.6z"/>
		<path class="st0" d="M556,189.7h-22.9l72.5-168.2h24.5L703,189.7h-24.5l-22.1-52.9h-56.5l6.1-17.6h43l-31.9-76.2L556,189.7z"/>
		<path class="st0" d="M726.3,189.7V21.5h22.1L852.9,157V21.5h20.9v168.2h-22.1L747.2,53v136.7H726.3z"/>
		<path class="st0" d="M914.5,189.7V21.5h62.1c56.6,0,84.8,26.5,84.8,79.5c0,59.1-28.3,88.7-84.8,88.7H914.5z M976.6,172.1
			c41.8,0,62.7-23.7,62.7-71c0-41.2-20.9-61.9-62.7-61.9h-40v132.9H976.6z"/>
	</g>
	<g>
		<path class="st0" d="M382.8,295.4v-18.2h-21.4v18.2h-3.5v-39.5h3.5V274h21.4v-18.1h3.5v39.5H382.8z"/>
		<path class="st0" d="M413.7,292.6l1.7-0.2l0.1,2.8c-4.3,0.5-7.9,0.8-10.9,0.8c-4.1,0-7-1.3-8.6-3.6c-1.6-2.4-2.4-6.1-2.4-11
			c0-9.9,3.9-14.9,11.7-14.9c3.8,0,6.6,1.1,8.4,3.2s2.8,5.6,2.8,10.3l-0.1,2.7h-19.3c0,3.5,0.6,6.1,1.8,7.8c1.2,1.7,3.2,2.5,6.1,2.5
			C407.9,292.9,410.8,292.8,413.7,292.6z M397.1,279.8h16c0-3.8-0.6-6.4-1.8-8c-1.2-1.6-3.2-2.4-5.9-2.4c-2.7,0-4.8,0.8-6.2,2.5
			C397.8,273.5,397.1,276.1,397.1,279.8z"/>
		<path class="st0" d="M423,295.4v-41h3.4v41H423z"/>
		<path class="st0" d="M434.2,308.2V267h3.4v2.2c3-1.8,6.1-2.7,9.3-2.7s5.7,1.2,7.3,3.5c1.6,2.3,2.4,6.1,2.4,11.3s-0.9,9-2.8,11.3
			c-1.9,2.3-5,3.5-9.4,3.5c-2.3,0-4.6-0.2-6.8-0.7v13H434.2z M446.2,269.5c-1.2,0-2.6,0.2-4,0.6c-1.4,0.4-2.6,0.9-3.4,1.3l-1.3,0.6
			v20.2c2.6,0.5,4.8,0.7,6.7,0.7c3.3,0,5.5-0.9,6.9-2.8c1.3-1.8,2-4.9,2-9.1s-0.6-7.2-1.7-9C450.2,270.4,448.5,269.5,446.2,269.5z"
			/>
		<path class="st0" d="M463.3,259.9v-4.3h3.4v4.3H463.3z M463.3,295.4V267h3.4v28.4H463.3z"/>
		<path class="st0" d="M477.7,295.4h-3.4V267h3.4v2.1c3.2-1.8,6.3-2.7,9.3-2.7c3.8,0,6.3,1,7.6,3c1.3,2,1.9,5.7,1.9,11v14.9h-3.4
			v-14.8c0-4.4-0.4-7.3-1.3-8.8c-0.8-1.5-2.6-2.3-5.3-2.3c-1.3,0-2.7,0.2-4.2,0.6c-1.5,0.4-2.6,0.8-3.4,1.2l-1.2,0.6V295.4z"/>
		<path class="st0" d="M526.7,299.7c0,3.2-1,5.5-3.1,7c-2.1,1.4-5.3,2.2-9.6,2.2c-4.4,0-7.4-0.6-9-1.9c-1.7-1.3-2.5-3.5-2.5-6.9
			c0-1.6,0.3-2.9,1-3.8s1.9-2.1,3.6-3.3c-0.9-0.6-1.4-1.9-1.4-3.9c0-0.6,0.5-1.8,1.4-3.6l0.5-0.9c-3.1-1.3-4.7-4.1-4.7-8.6
			c0-6.4,3.4-9.7,10.3-9.7c1.9,0,3.6,0.2,5.1,0.6l0.9,0.2l8.2-0.2v3l-5.7-0.1c1.4,1.4,2,3.6,2,6.7s-0.9,5.4-2.6,6.8
			c-1.7,1.4-4.4,2.1-8.2,2.1c-1.1,0-2.1-0.1-2.9-0.2c-0.8,1.9-1.1,3-1.1,3.5c0,1.3,0.4,2,1.1,2.3c0.7,0.3,2.9,0.4,6.6,0.5
			c3.7,0,6.3,0.6,7.8,1.6C525.9,294.4,526.7,296.5,526.7,299.7z M505.8,299.9c0,2.3,0.6,3.8,1.7,4.7c1.1,0.9,3.3,1.3,6.6,1.3
			c3.3,0,5.6-0.5,7-1.4c1.4-0.9,2.1-2.5,2.1-4.7c0-2.2-0.5-3.6-1.5-4.2c-1-0.6-3-1-5.9-1l-6.4-0.2c-1.4,1-2.3,1.8-2.8,2.6
			C506,297.8,505.8,298.7,505.8,299.9z M506.2,276.1c0,2.4,0.5,4.2,1.6,5.2c1.1,1,2.8,1.5,5.4,1.5c2.5,0,4.3-0.5,5.4-1.5
			c1.1-1,1.6-2.7,1.6-5.2c0-2.5-0.5-4.2-1.6-5.3c-1.1-1-2.9-1.5-5.4-1.5c-2.5,0-4.3,0.5-5.4,1.6
			C506.7,271.9,506.2,273.6,506.2,276.1z"/>
		<path class="st0" d="M545.1,308.2V267h3.4v2.2c3-1.8,6.1-2.7,9.3-2.7c3.3,0,5.7,1.2,7.3,3.5c1.6,2.3,2.4,6.1,2.4,11.3
			s-0.9,9-2.8,11.3c-1.9,2.3-5,3.5-9.4,3.5c-2.3,0-4.6-0.2-6.8-0.7v13H545.1z M557.1,269.5c-1.2,0-2.6,0.2-4,0.6
			c-1.4,0.4-2.6,0.9-3.4,1.3l-1.2,0.6v20.2c2.6,0.5,4.8,0.7,6.7,0.7c3.3,0,5.5-0.9,6.9-2.8c1.3-1.8,2-4.9,2-9.1s-0.6-7.2-1.7-9
			C561.1,270.4,559.4,269.5,557.1,269.5z"/>
		<path class="st0" d="M593.3,292.6l1.7-0.2l0.1,2.8c-4.3,0.5-7.9,0.8-10.9,0.8c-4.1,0-7-1.3-8.6-3.6c-1.6-2.4-2.4-6.1-2.4-11
			c0-9.9,3.9-14.9,11.7-14.9c3.7,0,6.6,1.1,8.4,3.2c1.9,2.1,2.8,5.6,2.8,10.3l-0.1,2.7h-19.3c0,3.5,0.6,6.1,1.8,7.8s3.2,2.5,6.1,2.5
			S590.4,292.8,593.3,292.6z M576.7,279.8h16c0-3.8-0.6-6.4-1.8-8c-1.2-1.6-3.2-2.4-5.9-2.4c-2.7,0-4.8,0.8-6.2,2.5
			C577.4,273.5,576.7,276.1,576.7,279.8z"/>
		<path class="st0" d="M601.7,281.1c0-5.3,0.9-9.1,2.7-11.4c1.8-2.2,4.9-3.4,9.2-3.4c4.3,0,7.4,1.1,9.2,3.4c1.8,2.2,2.7,6,2.7,11.4
			s-0.8,9.2-2.5,11.4c-1.6,2.3-4.8,3.4-9.4,3.4c-4.6,0-7.8-1.1-9.4-3.4C602.5,290.3,601.7,286.5,601.7,281.1z M605.2,281.1
			c0,4.5,0.5,7.6,1.6,9.3c1,1.7,3.3,2.6,6.8,2.6c3.5,0,5.8-0.9,6.8-2.6c1.1-1.7,1.6-4.8,1.6-9.3c0-4.5-0.6-7.5-1.8-9.2
			c-1.2-1.6-3.4-2.5-6.6-2.5c-3.2,0-5.4,0.8-6.6,2.4C605.8,273.5,605.2,276.6,605.2,281.1z"/>
		<path class="st0" d="M632.2,308.2V267h3.4v2.2c3-1.8,6.1-2.7,9.3-2.7c3.3,0,5.7,1.2,7.3,3.5c1.6,2.3,2.4,6.1,2.4,11.3
			s-0.9,9-2.8,11.3c-1.9,2.3-5,3.5-9.4,3.5c-2.3,0-4.6-0.2-6.8-0.7v13H632.2z M644.2,269.5c-1.2,0-2.6,0.2-4,0.6
			c-1.4,0.4-2.6,0.9-3.4,1.3l-1.2,0.6v20.2c2.6,0.5,4.8,0.7,6.7,0.7c3.3,0,5.5-0.9,6.9-2.8c1.3-1.8,2-4.9,2-9.1s-0.6-7.2-1.7-9
			C648.2,270.4,646.5,269.5,644.2,269.5z"/>
		<path class="st0" d="M661.5,295.4v-41h3.4v41H661.5z"/>
		<path class="st0" d="M691.8,292.6l1.7-0.2l0.1,2.8c-4.3,0.5-7.9,0.8-10.9,0.8c-4.1,0-7-1.3-8.6-3.6c-1.6-2.4-2.4-6.1-2.4-11
			c0-9.9,3.9-14.9,11.7-14.9c3.8,0,6.6,1.1,8.4,3.2c1.9,2.1,2.8,5.6,2.8,10.3l-0.1,2.7h-19.3c0,3.5,0.6,6.1,1.8,7.8
			c1.2,1.7,3.2,2.5,6.1,2.5C686,292.9,688.9,292.8,691.8,292.6z M675.2,279.8h16c0-3.8-0.6-6.4-1.8-8c-1.2-1.6-3.2-2.4-5.9-2.4
			c-2.7,0-4.8,0.8-6.2,2.5C675.9,273.5,675.2,276.1,675.2,279.8z"/>
		<path class="st0" d="M700.3,295.4v-5.7h3.7v5.7H700.3z"/>
		<path class="st0" d="M749,294.8c-3.9,0.8-7.2,1.2-10,1.2c-2.8,0-5-0.3-6.7-0.9c-1.7-0.6-3.1-1.4-4.1-2.5c-1.1-1.1-1.9-2.4-2.5-4.1
			c-1.1-3.1-1.7-7.3-1.7-12.7c0-8.6,1.4-14.2,4.1-17c2.2-2.3,5.6-3.5,10.2-3.5c3.1,0,6.7,0.4,10.7,1.2l-0.2,3.1
			c-3.9-0.7-7.1-1.1-9.5-1.1c-2.4,0-4.2,0.3-5.5,0.8c-1.3,0.5-2.4,1.2-3.2,2c-0.8,0.9-1.4,2-1.8,3.6c-0.8,2.6-1.1,5.8-1.1,9.7
			c0,3.9,0.1,6.8,0.4,8.7c0.3,1.9,0.8,3.6,1.5,5.2c0.8,1.6,1.9,2.7,3.4,3.4s3.5,1,6.1,1c2.6,0,5.9-0.4,9.8-1.1L749,294.8z"/>
		<path class="st0" d="M758.5,295.4h-3.4v-41h3.4v14.3c3.2-1.5,6.3-2.2,9.2-2.2c3.8,0,6.3,1,7.6,3c1.3,2,1.9,5.7,1.9,11v14.9h-3.4
			v-14.8c0-4.4-0.4-7.3-1.2-8.8c-0.8-1.5-2.6-2.3-5.3-2.3c-1.3,0-2.7,0.2-4.2,0.5c-1.5,0.3-2.6,0.7-3.4,1l-1.2,0.5V295.4z"/>
		<path class="st0" d="M804.4,275.5v15.2c0.1,1.4,1.4,2.2,3.7,2.5l-0.2,2.7c-2.9,0-5.1-0.8-6.4-2.3c-3.6,1.6-7.1,2.3-10.7,2.3
			c-2.5,0-4.5-0.7-5.8-2.2c-1.3-1.5-2-3.5-2-6.3s0.7-4.7,2-6c1.3-1.3,3.5-2.1,6.3-2.4l9.7-1v-2.7c0-2.1-0.5-3.6-1.4-4.6
			c-0.9-0.9-2.2-1.4-3.7-1.4c-2.4,0-5.6,0.2-9.4,0.7l-1.8,0.2l-0.2-2.7c4.2-0.8,7.8-1.2,10.9-1.2c3.1,0,5.4,0.7,6.8,2.2
			C803.7,270.1,804.4,272.4,804.4,275.5z M786.6,287.3c0,3.8,1.6,5.7,4.7,5.7c1.4,0,2.9-0.2,4.5-0.5c1.6-0.3,2.9-0.7,3.9-1l1.4-0.5
			v-10.3l-9.3,1c-1.9,0.2-3.2,0.7-4,1.6C787,284.3,786.6,285.6,786.6,287.3z"/>
		<path class="st0" d="M816.7,295.4h-3.4V267h3.4v2.1c3.2-1.8,6.3-2.7,9.3-2.7c3.8,0,6.3,1,7.6,3c1.3,2,1.9,5.7,1.9,11v14.9h-3.4
			v-14.8c0-4.4-0.4-7.3-1.2-8.8s-2.6-2.3-5.3-2.3c-1.3,0-2.7,0.2-4.2,0.6c-1.5,0.4-2.6,0.8-3.4,1.2l-1.2,0.6V295.4z"/>
		<path class="st0" d="M865.7,299.7c0,3.2-1,5.5-3.1,7c-2.1,1.4-5.3,2.2-9.6,2.2c-4.4,0-7.4-0.6-9-1.9c-1.7-1.3-2.5-3.5-2.5-6.9
			c0-1.6,0.3-2.9,1-3.8c0.7-1,1.9-2.1,3.6-3.3c-0.9-0.6-1.4-1.9-1.4-3.9c0-0.6,0.5-1.8,1.4-3.6l0.5-0.9c-3.1-1.3-4.7-4.1-4.7-8.6
			c0-6.4,3.4-9.7,10.3-9.7c1.9,0,3.6,0.2,5.1,0.6l0.9,0.2l8.2-0.2v3l-5.7-0.1c1.4,1.4,2,3.6,2,6.7s-0.9,5.4-2.6,6.8
			c-1.7,1.4-4.4,2.1-8.2,2.1c-1.1,0-2.1-0.1-2.9-0.2c-0.8,1.9-1.1,3-1.1,3.5c0,1.3,0.4,2,1.1,2.3c0.7,0.3,2.9,0.4,6.6,0.5
			c3.7,0,6.3,0.6,7.8,1.6C864.9,294.4,865.7,296.5,865.7,299.7z M844.8,299.9c0,2.3,0.6,3.8,1.7,4.7c1.1,0.9,3.3,1.3,6.6,1.3
			c3.3,0,5.6-0.5,7-1.4c1.4-0.9,2.1-2.5,2.1-4.7c0-2.2-0.5-3.6-1.5-4.2c-1-0.6-3-1-5.9-1l-6.4-0.2c-1.4,1-2.4,1.8-2.8,2.6
			C845,297.8,844.8,298.7,844.8,299.9z M845.2,276.1c0,2.4,0.5,4.2,1.6,5.2c1.1,1,2.9,1.5,5.4,1.5c2.5,0,4.3-0.5,5.4-1.5
			c1.1-1,1.6-2.7,1.6-5.2c0-2.5-0.5-4.2-1.6-5.3c-1.1-1-2.9-1.5-5.4-1.5c-2.5,0-4.3,0.5-5.4,1.6
			C845.7,271.9,845.2,273.6,845.2,276.1z"/>
		<path class="st0" d="M871.5,259.9v-4.3h3.4v4.3H871.5z M871.5,295.4V267h3.4v28.4H871.5z"/>
		<path class="st0" d="M885.9,295.4h-3.4V267h3.4v2.1c3.2-1.8,6.3-2.7,9.3-2.7c3.8,0,6.3,1,7.6,3c1.3,2,1.9,5.7,1.9,11v14.9h-3.4
			v-14.8c0-4.4-0.4-7.3-1.3-8.8c-0.8-1.5-2.6-2.3-5.3-2.3c-1.3,0-2.7,0.2-4.2,0.6c-1.5,0.4-2.6,0.8-3.4,1.2l-1.2,0.6V295.4z"/>
		<path class="st0" d="M934.9,299.7c0,3.2-1,5.5-3.1,7c-2.1,1.4-5.3,2.2-9.6,2.2c-4.4,0-7.4-0.6-9-1.9s-2.5-3.5-2.5-6.9
			c0-1.6,0.3-2.9,1-3.8c0.7-1,1.9-2.1,3.6-3.3c-0.9-0.6-1.4-1.9-1.4-3.9c0-0.6,0.5-1.8,1.4-3.6l0.5-0.9c-3.1-1.3-4.7-4.1-4.7-8.6
			c0-6.4,3.4-9.7,10.3-9.7c1.9,0,3.6,0.2,5.1,0.6l0.9,0.2l8.2-0.2v3l-5.7-0.1c1.4,1.4,2,3.6,2,6.7s-0.9,5.4-2.6,6.8
			c-1.7,1.4-4.4,2.1-8.2,2.1c-1.1,0-2.1-0.1-2.9-0.2c-0.8,1.9-1.1,3-1.1,3.5c0,1.3,0.4,2,1.1,2.3c0.7,0.3,2.9,0.4,6.6,0.5
			c3.7,0,6.3,0.6,7.8,1.6C934.1,294.4,934.9,296.5,934.9,299.7z M914,299.9c0,2.3,0.6,3.8,1.7,4.7c1.1,0.9,3.3,1.3,6.6,1.3
			c3.3,0,5.6-0.5,7-1.4c1.4-0.9,2.1-2.5,2.1-4.7c0-2.2-0.5-3.6-1.5-4.2c-1-0.6-3-1-5.9-1l-6.4-0.2c-1.4,1-2.3,1.8-2.8,2.6
			C914.3,297.8,914,298.7,914,299.9z M914.4,276.1c0,2.4,0.5,4.2,1.6,5.2c1.1,1,2.8,1.5,5.4,1.5c2.5,0,4.3-0.5,5.4-1.5
			s1.6-2.7,1.6-5.2c0-2.5-0.5-4.2-1.6-5.3c-1.1-1-2.9-1.5-5.4-1.5c-2.5,0-4.3,0.5-5.4,1.6C914.9,271.9,914.4,273.6,914.4,276.1z"/>
		<path class="st0" d="M953.6,295.4v-41h3.4v41H953.6z"/>
		<path class="st0" d="M964.8,259.9v-4.3h3.4v4.3H964.8z M964.8,295.4V267h3.4v28.4H964.8z"/>
		<path class="st0" d="M973.7,267h3.7l7.1,25.5h2.3l7.4-25.5h3.5l-8.3,28.4H982L973.7,267z"/>
		<path class="st0" d="M1021.4,292.6l1.7-0.2l0.1,2.8c-4.3,0.5-7.9,0.8-10.9,0.8c-4.1,0-7-1.3-8.6-3.6c-1.6-2.4-2.4-6.1-2.4-11
			c0-9.9,3.9-14.9,11.7-14.9c3.8,0,6.6,1.1,8.4,3.2c1.9,2.1,2.8,5.6,2.8,10.3l-0.1,2.7h-19.3c0,3.5,0.6,6.1,1.8,7.8
			c1.2,1.7,3.2,2.5,6.1,2.5C1015.6,292.9,1018.5,292.8,1021.4,292.6z M1004.8,279.8h16c0-3.8-0.6-6.4-1.8-8
			c-1.2-1.6-3.2-2.4-5.9-2.4c-2.7,0-4.8,0.8-6.2,2.5C1005.5,273.5,1004.8,276.1,1004.8,279.8z"/>
		<path class="st0" d="M1039.7,269.6c-4.5,0-6.7,1.6-6.7,4.8c0,1.5,0.5,2.5,1.5,3.1c1,0.6,3.2,1.2,6.7,1.8c3.5,0.6,5.9,1.4,7.3,2.4
			c1.4,1,2.1,3,2.1,5.9c0,2.9-0.9,5-2.8,6.4c-1.9,1.3-4.6,2-8.2,2c-2.1,0-4.8-0.3-8.1-0.8l-1.6-0.2l0.2-3c4.2,0.6,7.5,1,9.8,1
			c2.3,0,4-0.4,5.3-1.2c1.3-0.8,1.9-2.1,1.9-4c0-1.9-0.5-3.2-1.6-3.8c-1-0.6-3.3-1.2-6.7-1.7c-3.4-0.5-5.8-1.3-7.2-2.3
			c-1.4-1-2.1-2.8-2.1-5.6s1-4.7,2.9-6c1.9-1.2,4.3-1.9,7.2-1.9c2.3,0,5.1,0.2,8.5,0.7l1.5,0.2l-0.1,3
			C1045.5,269.9,1042.2,269.6,1039.7,269.6z"/>
		<path class="st0" d="M1057.1,295.4v-5.7h3.7v5.7H1057.1z"/>
	</g>
	<g>
		<path class="st0" d="M112.3,21.2c18.5,0.1,36.1,3.9,52.9,11.6c1.5,0.7,2.8,0.7,4.3,0.1c12-5,24.3-8.7,37.2-10.4
			c23.1-3.1,45,0,65,12.7c15.8,10.1,26.7,24.3,33.7,41.6c7.1,17.5,9.2,35.8,7.8,54.6c-1.2,15.6-4.7,30.7-10.2,45.3
			c-0.5,1.5-0.6,2.9-0.5,4.5c0.3,5.9-1.9,10.9-6.1,14.9c-4.4,4.2-8.3,8.9-13.6,12c-1,0.6-0.9,1.5-0.8,2.4c0.9,6.6-1.2,12.1-5.7,16.8
			c-2.8,2.9-5.7,5.7-8.5,8.6c-2.7,2.7-5.8,4.5-9.5,5.4c-1.5,0.3-2.1,1.1-2.6,2.4c-1.2,3.3-3.2,6.1-5.6,8.5
			c-4.1,4.1-8.1,8.3-12.4,12.2c-2,1.8-4.3,3.2-6.9,4c-1.2,0.4-1.9,1-2,2.2c-0.8,5.1-3.6,8.9-7.3,12.3c-2.7,2.4-5.2,5-7.8,7.5
			c-6.2,6-15,7.3-22.5,3c-1.7-1-2.6-0.7-3.8,0.6c-4.5,4.8-9,9.5-13.6,14.1c-7.7,7.8-19.6,8.3-27.7,0.9c-4.8-4.4-10-8.5-13-14.6
			c-0.5-1-1.3-1.2-2.3-1.2c-5.7-0.3-10.5-2.6-14.4-6.9c-3-3.3-7-5.9-9.2-9.6c-2.5-4.2-5.3-6.2-10-6.9c-3.3-0.5-6-2.5-8.3-5
			c-2.3-2.4-4.7-4.8-7.1-7.1c-3-2.8-5.1-6-6.1-9.9c-0.3-1.4-1.1-2.1-2.5-2.5c-4.1-1.3-7.6-3.5-10.5-6.7c-2.2-2.4-4.6-4.6-6.9-7
			c-3.9-3.9-6-8.5-5.7-14c0.1-2.6-0.7-4.7-2-6.8c-12.1-19.6-20.9-40.6-24.9-63.4c-4.4-24.5-3.6-48.6,6.3-71.7
			c13.2-30.8,36.5-48.9,69.8-53.7C103.5,21.2,107.9,21.1,112.3,21.2z M136.7,119.8C136.7,119.8,136.7,119.8,136.7,119.8
			c-7.2,0-14.4,0.1-21.7-0.1c-8.5-0.2-14-5.8-13.2-13.1c0.4-3.5,2.2-6.5,4.4-9.2c4.1-5.2,8.8-9.9,13.3-14.8
			c11.1-12.1,22.1-24.1,33.2-36.2c1.1-1.2,1.3-1.7-0.5-2.4c-17.5-6.1-35.3-9.4-53.9-6.5c-23.5,3.7-40.7,16.3-51.7,37.1
			c-10.9,20.6-12.5,42.6-9.4,65.2c2.9,20.6,10.2,39.8,20.5,57.8c1.5,2.6,1.5,2.6,3.5,0.5c13.2-13.7,26.4-27.5,39.7-41.1
			c7.7-7.8,19-7.8,26.8-0.1c2.6,2.5,5.1,5.1,7.7,7.7c3,2.9,5.3,6.1,6.2,10.2c0.3,1.2,1,1.9,2.1,2.2c4.2,0.9,7.5,3.2,10.4,6.3
			c2.4,2.6,4.9,5,7.5,7.5c2.5,2.5,4.3,5.4,5.1,8.8c0.3,1.4,1,2.1,2.4,2.5c3.8,0.9,6.9,2.9,9.6,5.7c2.5,2.7,5.2,5.3,7.8,7.9
			c2.5,2.6,4.5,5.5,5.3,9c0.4,1.6,1.2,2.4,2.8,2.7c3.3,0.7,6.1,2.3,8.4,4.7c6.4,6.4,12.9,12.8,18.6,19.9c2,2.5,3.9,2.7,6.2,0.5
			c4.1-3.9,8.1-7.8,12.1-11.8c2-2,1.9-3.1,0-5.1c-16-16.7-32-33.3-47.9-50c-6-6.3-12.1-12.6-18.2-18.9c-3.4-3.6-3.7-8.3-0.7-11.3
			c3.2-3.2,7.8-3,11.4,0.7c7.4,7.6,14.7,15.2,22.1,22.8c14.6,15.3,29.3,30.6,43.9,45.8c2.3,2.4,4.3,2.4,6.7,0.1
			c2.8-2.7,5.5-5.4,8.2-8.2c2.6-2.6,2.6-4.2,0.1-6.9c-2.9-3.1-5.8-6.3-8.9-9.3c-15.9-16.2-31.9-32.3-47.8-48.4
			c-4-4.1-8-8.2-11.8-12.4c-2.8-3-2.6-7.2,0-10.1c2.6-2.9,6.8-3.3,10-0.9c0.9,0.7,1.8,1.5,2.6,2.4c4.3,4.4,8.6,8.8,12.8,13.2
			c8.2,8.3,16.3,16.7,24.5,25c7.9,8,15.8,16,23.8,24c2.7,2.8,3.9,2.7,6.7-0.1c2.5-2.4,5-4.7,7.4-7.2c3.4-3.3,3.4-4.8,0.2-8.2
			c-13.3-14-26.5-28.1-39.8-42.1c-16-16.9-32-33.8-48-50.6c-2.1-2.2-2.1-2.2-4.2,0.1c-9.4,10.5-18.9,20.9-28.4,31.4
			c-2.1,2.3-4.4,3.3-7.5,3.3C150.5,119.7,143.6,119.8,136.7,119.8z M77.8,230.7c1.6,0,2.6-1.1,3.6-2.1
			c10.9-11.3,21.8-22.5,32.7-33.8c3.8-4,7.7-7.9,11.5-12c2.6-2.8,2.5-4.2-0.1-6.9c-2.5-2.6-5-5.2-7.7-7.6c-2.5-2.4-4.3-2.3-6.7,0.1
			c-1.4,1.4-2.6,2.8-4,4.2c-13.5,14-27,28-40.5,42.1c-2.2,2.3-2.2,4.2,0,6.6c2.6,2.7,5.4,5.3,8,8C75.6,230.1,76.6,230.7,77.8,230.7z
			 M102.9,255.7c1.4,0.1,2.3-0.8,3.1-1.8c5.9-6,11.7-12,17.5-18.1c8.9-9.2,17.8-18.5,26.7-27.8c3-3.1,2.9-4.5-0.1-7.6
			c-2.2-2.2-4.4-4.4-6.6-6.6c-3.3-3.3-4.5-3.3-7.7-0.1c-2.5,2.6-5,5.2-7.5,7.8c-12.2,12.6-24.4,25.2-36.6,37.8
			c-2.4,2.5-2.5,4.2-0.1,6.7c2.6,2.7,5.2,5.2,7.8,7.8C100.5,255,101.5,255.8,102.9,255.7z M130.8,277.9c1.6,0,2.6-1,3.6-2
			c8.3-8.6,16.6-17.1,24.8-25.7c5.6-5.8,11.2-11.5,16.8-17.4c2.4-2.5,2.4-4,0-6.5c-2.5-2.6-5.1-5.1-7.7-7.6
			c-2.9-2.8-4.6-2.7-7.4,0.2c-5.3,5.6-10.7,11.2-16,16.7c-8.2,8.5-16.5,17-24.7,25.5c-2.9,3-2.8,4.7,0.1,7.7
			c2.5,2.6,5.1,5.1,7.6,7.7C128.8,277.3,129.6,278,130.8,277.9z M189.8,241.8c-1.4,0-2.3,0.9-3.2,1.8c-2.2,2.2-4.3,4.5-6.4,6.7
			c-10.5,10.9-21.1,21.8-31.7,32.7c-2.8,2.9-2.8,4.7,0.3,7.6c2.3,2.2,4.6,4.4,6.9,6.6c3.2,3.1,4.1,3.2,7.2,0c9-9.3,18-18.6,27-27.8
			c3.7-3.8,7.4-7.5,11.1-11.3c2.4-2.5,2.3-4.4-0.1-6.8c-2.6-2.7-5.3-5.3-8-8C192,242.5,191.1,241.7,189.8,241.8z M212.4,270
			c-2.4,2.2-6.8,6.1-11.2,10.1C206,276.5,210.4,272.5,212.4,270z"/>
	</g>
</g>
</svg>
