<?xml version="1.0" ?><!DOCTYPE svg  PUBLIC '-//W3C//DTD SVG 1.1//EN'  'http://www.w3.org/Graphics/SVG/1.1/DTD/svg11.dtd'><svg enable-background="new 0 0 24 24" height="24px" id="Layer_1" version="1.1" viewBox="0 0 24 24" width="24px" xml:space="preserve" xmlns="http://www.w3.org/2000/svg" xmlns:xlink="http://www.w3.org/1999/xlink"><g><path d="M23.7,6.2L19.5,2H17h-1c0,2.2-1.8,4-4,4S8,4.2,8,2H7H4.5L0.3,6.2c-0.4,0.4-0.4,1,0,1.4L4,11.3V23c0,0.6,0.5,1,1,1h14   c0.6,0,1-0.4,1-1V11.3l3.7-3.7C24.1,7.2,24.1,6.6,23.7,6.2z M18.9,9.6L18,8.7V22H6V8.7L5.1,9.6L2.4,6.9L5.2,4h2.2   C8.2,5.8,10,7,12,7s3.8-1.2,4.6-3h2.2l2.9,2.9L18.9,9.6z"/><path d="M12,10c-1.7,0-3,1.3-3,3s1.3,3,3,3s3-1.3,3-3S13.7,10,12,10z M12,15c-1.1,0-2-0.9-2-2s0.9-2,2-2s2,0.9,2,2S13.1,15,12,15z"/></g></svg>