<svg id="Layer_1" data-name="Layer 1" xmlns="http://www.w3.org/2000/svg" viewBox="0 0 270.22 269.87"><title>heart_handshake</title><path d="M99.43,15a117.05,117.05,0,0,1,48.79,10.69,4.52,4.52,0,0,0,4,.08,137,137,0,0,1,34.33-9.57c21.3-2.88,41.53,0,60,11.69,14.6,9.27,24.62,22.4,31,38.32,6.53,16.16,8.51,33,7.22,50.3a150.53,150.53,0,0,1-9.36,41.73,10.07,10.07,0,0,0-.5,4.1,17.22,17.22,0,0,1-5.66,13.72c-4,3.84-7.61,8.17-12.5,11-.92.53-.83,1.36-.7,2.24.86,6-1.12,11.13-5.27,15.44-2.58,2.67-5.25,5.25-7.87,7.89a17.6,17.6,0,0,1-8.78,4.94,3,3,0,0,0-2.38,2.17,21,21,0,0,1-5.2,7.86c-3.77,3.78-7.45,7.66-11.45,11.19a17.92,17.92,0,0,1-6.38,3.71,2.4,2.4,0,0,0-1.89,2.06c-.72,4.69-3.36,8.21-6.76,11.31-2.46,2.25-4.84,4.57-7.22,6.89a17,17,0,0,1-20.72,2.79c-1.57-.9-2.41-.61-3.54.58q-6.21,6.57-12.58,13c-7.11,7.15-18.07,7.67-25.51.83-4.4-4-9.26-7.82-12-13.44a2.15,2.15,0,0,0-2.12-1.12,18.57,18.57,0,0,1-13.23-6.34c-2.76-3-6.42-5.45-8.44-8.88-2.27-3.83-4.93-5.71-9.2-6.31-3-.43-5.51-2.35-7.66-4.58s-4.31-4.44-6.57-6.56a18.47,18.47,0,0,1-5.62-9.16,3,3,0,0,0-2.29-2.31,21.93,21.93,0,0,1-9.7-6.13c-2.05-2.21-4.25-4.28-6.38-6.42a16.65,16.65,0,0,1-5.24-12.94,10.43,10.43,0,0,0-1.84-6.28C29,171.49,21,152.15,17.22,131.17c-4-22.53-3.28-44.77,5.84-66.07,12.16-28.39,33.62-45,64.32-49.45A70.29,70.29,0,0,1,99.43,15ZM122,105.85v0c-6.66,0-13.32.12-20,0-7.81-.18-12.89-5.33-12.13-12.11.36-3.26,2.06-6,4-8.5,3.75-4.84,8.12-9.13,12.25-13.63q15.28-16.69,30.63-33.32c1-1.08,1.19-1.61-.45-2.18-16.12-5.66-32.53-8.66-49.69-6C65,33.44,49.18,45.07,39,64.28c-10,18.93-11.52,39.27-8.62,60.08,2.64,19,9.38,36.66,18.92,53.26,1.38,2.39,1.37,2.4,3.25.44,12.21-12.63,24.35-25.32,36.65-37.86,7.07-7.22,17.53-7.14,24.71-.08,2.37,2.33,4.67,4.74,7.07,7a18.57,18.57,0,0,1,5.68,9.39,2.37,2.37,0,0,0,2,2,18.53,18.53,0,0,1,9.58,5.79c2.22,2.36,4.55,4.64,6.88,6.9a16.15,16.15,0,0,1,4.7,8.12,2.65,2.65,0,0,0,2.21,2.29,18.09,18.09,0,0,1,8.84,5.27c2.35,2.47,4.78,4.85,7.19,7.27a17.18,17.18,0,0,1,4.88,8.29,3,3,0,0,0,2.57,2.53,15.69,15.69,0,0,1,7.8,4.36c5.88,5.93,11.85,11.79,17.11,18.31,1.85,2.29,3.57,2.44,5.68.44q5.64-5.36,11.17-10.82c1.83-1.81,1.79-2.9,0-4.73q-22.1-23-44.2-46.06c-5.57-5.8-11.2-11.56-16.75-17.38-3.17-3.31-3.38-7.69-.62-10.4,3-2.95,7.17-2.75,10.48.63q10.22,10.46,20.34,21,20.25,21.09,40.48,42.22c2.13,2.21,4,2.19,6.22,0q3.83-3.73,7.55-7.56c2.35-2.41,2.36-3.9.06-6.37-2.69-2.89-5.39-5.77-8.16-8.58q-22-22.32-44-44.6c-3.69-3.75-7.37-7.52-10.92-11.39a6.67,6.67,0,0,1,0-9.28,6.81,6.81,0,0,1,9.27-.78,20.45,20.45,0,0,1,2.39,2.18c4,4,7.88,8.09,11.83,12.13q11.29,11.54,22.59,23,10.92,11.08,21.91,22.1c2.53,2.53,3.59,2.47,6.2-.07,2.28-2.21,4.61-4.36,6.86-6.6,3.11-3.08,3.11-4.44.15-7.58q-18.33-19.4-36.67-38.79Q200.15,97.15,178,73.86c-2-2.07-1.92-2-3.83.12-8.71,9.65-17.47,19.25-26.17,28.9a8.57,8.57,0,0,1-7,3C134.7,105.78,128.35,105.85,122,105.85ZM67.69,208c1.49,0,2.38-1,3.29-1.92L101.16,175c3.54-3.67,7.12-7.31,10.59-11,2.37-2.56,2.31-3.89-.09-6.35s-4.65-4.75-7.06-7-3.95-2.15-6.2.08c-1.27,1.25-2.41,2.61-3.65,3.89L57.43,193.25c-2.06,2.15-2.07,3.91,0,6,2.43,2.49,4.94,4.9,7.4,7.36A4.17,4.17,0,0,0,67.69,208Zm23.15,23c1.29.09,2.09-.78,2.9-1.62q8.1-8.31,16.18-16.63,12.33-12.76,24.63-25.57c2.75-2.86,2.71-4.12-.14-7q-3-3-6.07-6.08c-3-3-4.16-3-7.07-.06-2.33,2.38-4.58,4.83-6.9,7.21q-16.86,17.41-33.75,34.83c-2.25,2.33-2.26,3.91-.06,6.18,2.37,2.44,4.81,4.82,7.22,7.23A4.09,4.09,0,0,0,90.84,231.07Zm25.66,20.42c1.51,0,2.42-.91,3.35-1.87q11.45-11.84,22.9-23.65c5.16-5.33,10.36-10.63,15.48-16,2.25-2.35,2.22-3.66,0-5.95s-4.71-4.69-7.08-7c-2.63-2.59-4.21-2.5-6.8.22q-7.35,7.72-14.77,15.38c-7.58,7.83-15.2,15.63-22.78,23.46-2.65,2.73-2.62,4.37.08,7.11,2.33,2.37,4.7,4.7,7,7.06A3.28,3.28,0,0,0,116.5,251.49ZM171,218.23a4.18,4.18,0,0,0-3,1.62c-2,2.05-3.93,4.16-5.91,6.22q-14.6,15.08-29.19,30.15c-2.63,2.71-2.54,4.37.24,7,2.12,2,4.26,4,6.36,6.1,2.91,2.86,3.8,2.91,6.65,0,8.31-8.53,16.56-17.1,24.85-25.65,3.39-3.49,6.86-6.91,10.22-10.44,2.17-2.27,2.11-4-.06-6.24-2.44-2.48-4.92-4.92-7.38-7.38A3.72,3.72,0,0,0,171,218.23Zm20.81,26-10.28,9.32A66,66,0,0,0,191.77,244.22Z" transform="translate(-14.89 -15)"/></svg>