<?xml version="1.0" ?><!DOCTYPE svg  PUBLIC '-//W3C//DTD SVG 1.1//EN'  'http://www.w3.org/Graphics/SVG/1.1/DTD/svg11.dtd'><svg enable-background="new 0 0 96 96" height="96px" version="1.1" viewBox="0 0 96 96" width="96px" xml:space="preserve" xmlns="http://www.w3.org/2000/svg" xmlns:xlink="http://www.w3.org/1999/xlink"><g id="Слой_1"/><g id="Слой_2"><g><path d="M94.266,1.735c-0.699-0.699-1.832-0.699-2.531,0L72.137,21.333c-1.337-1.463-2.671-3.1-4.063-4.813    C62.787,10.019,56.796,2.65,48.002,2.648c-8.791,0.002-14.78,7.366-20.065,13.863c-1.823,2.241-3.545,4.359-5.308,6.119    c-1.758,1.76-3.874,3.481-6.114,5.303C10.016,33.22,2.649,39.211,2.647,48c0.002,8.793,7.371,14.787,13.873,20.074    c1.712,1.393,3.349,2.726,4.812,4.063L1.734,91.735c-0.699,0.699-0.699,1.832,0,2.531c0.35,0.35,0.808,0.524,1.266,0.524    s0.916-0.175,1.266-0.524l90-90C94.965,3.567,94.965,2.434,94.266,1.735z M60.482,32.987c-3.044-2.538-6.742-4.069-10.69-4.425    V15.759c7.358,0.398,14.258,3.254,19.745,8.173L60.482,32.987z M35.543,57.926c-2.249-2.813-3.477-6.274-3.477-9.926    c0-4.259,1.659-8.263,4.67-11.276c3.01-3.011,7.009-4.669,11.262-4.669c0.001,0,0.002,0,0.004,0c3.657,0,7.121,1.229,9.934,3.477    L35.543,57.926z M23.949,69.52c-4.919-5.48-7.775-12.374-8.174-19.729h12.798c0.356,3.943,1.887,7.639,4.423,10.683L23.949,69.52z     M46.212,15.759v12.803c-4.535,0.41-8.747,2.369-12.008,5.631c-3.262,3.263-5.221,7.478-5.631,12.017H15.775    C16.674,29.827,29.835,16.66,46.212,15.759z M48.002,6.229c5.646,0.001,10.083,4.048,14.189,8.81    c-4.423-1.904-9.227-2.912-14.187-2.912c-5.052,0-9.861,1.056-14.225,2.95C37.896,10.298,42.342,6.229,48.002,6.229z M6.228,48    c0.001-5.666,4.081-10.116,8.868-14.237c-1.896,4.367-2.953,9.18-2.953,14.237c0,4.974,1.014,9.789,2.93,14.222    C10.295,58.105,6.229,53.659,6.228,48z" fill="#5B4577"/><path d="M81.378,29.479c-0.024-0.021-0.053-0.033-0.078-0.052c-0.05-0.037-0.101-0.071-0.152-0.102    c-0.051-0.03-0.101-0.056-0.152-0.081c-0.054-0.025-0.108-0.047-0.164-0.067c-0.055-0.02-0.108-0.036-0.164-0.049    c-0.057-0.014-0.113-0.025-0.17-0.033c-0.057-0.008-0.112-0.014-0.169-0.017c-0.058-0.003-0.116-0.003-0.174,0    c-0.056,0.002-0.111,0.008-0.166,0.016c-0.059,0.008-0.115,0.02-0.173,0.033c-0.055,0.014-0.108,0.029-0.161,0.047    c-0.056,0.019-0.109,0.041-0.163,0.066c-0.053,0.024-0.104,0.051-0.154,0.081c-0.05,0.029-0.099,0.061-0.146,0.095    c-0.05,0.036-0.096,0.074-0.142,0.115c-0.024,0.021-0.051,0.037-0.074,0.06l-1.794,1.788c-0.018,0.017-0.029,0.038-0.045,0.055    c-0.044,0.047-0.083,0.096-0.121,0.147c-0.034,0.046-0.066,0.091-0.096,0.139c-0.029,0.049-0.055,0.099-0.079,0.15    c-0.026,0.054-0.052,0.108-0.072,0.165c-0.019,0.051-0.032,0.102-0.047,0.154c-0.015,0.059-0.03,0.117-0.039,0.176    c-0.009,0.055-0.013,0.11-0.017,0.166c-0.004,0.058-0.007,0.116-0.005,0.174c0.002,0.057,0.009,0.112,0.016,0.169    c0.008,0.059,0.017,0.118,0.03,0.176c0.012,0.053,0.028,0.105,0.046,0.158c0.021,0.061,0.042,0.12,0.069,0.179    c0.01,0.022,0.015,0.045,0.025,0.067c2.024,4.008,3.165,8.291,3.406,12.756h-12.81c-0.028-0.31-0.054-0.621-0.097-0.925    c-0.137-0.979-1.041-1.664-2.021-1.525c-0.979,0.137-1.661,1.041-1.524,2.02c0.102,0.725,0.152,1.472,0.152,2.22    c0,8.792-7.156,15.944-15.953,15.944c-0.757,0-1.5-0.052-2.209-0.154c-0.975-0.142-1.886,0.537-2.028,1.516    s0.537,1.886,1.515,2.027c0.305,0.044,0.619,0.07,0.932,0.1v12.804c-4.471-0.247-8.752-1.389-12.748-3.408    c-0.021-0.011-0.044-0.016-0.065-0.025c-0.061-0.027-0.123-0.051-0.186-0.071c-0.05-0.017-0.101-0.032-0.151-0.044    c-0.06-0.014-0.12-0.023-0.181-0.03c-0.056-0.008-0.111-0.014-0.167-0.016c-0.058-0.002-0.115,0.001-0.174,0.005    c-0.056,0.004-0.112,0.008-0.167,0.018c-0.058,0.009-0.114,0.023-0.171,0.038c-0.054,0.015-0.107,0.028-0.16,0.048    c-0.055,0.021-0.107,0.045-0.16,0.07c-0.053,0.025-0.105,0.052-0.155,0.082c-0.046,0.028-0.09,0.061-0.135,0.094    c-0.052,0.039-0.103,0.079-0.151,0.124c-0.018,0.017-0.038,0.027-0.055,0.045l-1.799,1.813c-0.021,0.021-0.036,0.047-0.056,0.069    c-0.042,0.048-0.083,0.097-0.12,0.147c-0.033,0.046-0.063,0.092-0.092,0.141c-0.031,0.052-0.058,0.104-0.083,0.159    c-0.024,0.053-0.045,0.104-0.064,0.158c-0.019,0.055-0.035,0.109-0.048,0.166c-0.014,0.056-0.024,0.111-0.033,0.168    c-0.008,0.057-0.013,0.113-0.016,0.171c-0.002,0.057-0.003,0.112,0,0.169c0.003,0.059,0.009,0.116,0.018,0.174    c0.008,0.056,0.019,0.11,0.032,0.165c0.014,0.057,0.031,0.113,0.05,0.169c0.02,0.054,0.041,0.107,0.066,0.159    c0.024,0.054,0.052,0.104,0.083,0.156c0.031,0.052,0.064,0.102,0.101,0.15c0.019,0.025,0.032,0.053,0.052,0.077    c5,6.061,10.549,11.978,18.528,11.978c8.791-0.004,14.783-7.371,20.069-13.871c1.821-2.24,3.541-4.355,5.302-6.114    c1.757-1.759,3.873-3.48,6.114-5.303c6.501-5.288,13.869-11.28,13.863-20.065C93.362,40.031,87.442,34.481,81.378,29.479z     M67.444,49.79h12.809c-0.9,16.384-14.073,29.552-30.461,30.448V67.434C59.135,66.58,66.59,59.129,67.444,49.79z M48.005,89.775    c-5.692,0-10.179-4.146-14.228-8.849c4.481,1.944,9.257,2.935,14.228,2.943c5.052,0,9.86-1.055,14.224-2.946    C58.112,85.703,53.665,89.773,48.005,89.775z M80.941,62.211c1.891-4.36,2.943-9.164,2.943-14.211    c0-4.947-0.983-9.71-2.922-14.192c4.691,4.043,8.816,8.521,8.812,14.193C89.778,53.653,85.716,58.097,80.941,62.211z" fill="#5B4577"/></g></g></svg>