<?xml version="1.0" encoding="utf-8"?>
<!-- Generator: Adobe Illustrator 22.0.0, SVG Export Plug-In . SVG Version: 6.00 Build 0)  -->
<svg version="1.1" id="Layer_1" xmlns="http://www.w3.org/2000/svg" xmlns:xlink="http://www.w3.org/1999/xlink" x="0px" y="0px"
	 viewBox="0 0 1792 1792" style="enable-background:new 0 0 1792 1792;" xml:space="preserve">
<path d="M147,851l544-544c12.7-12.7,27.7-19,45-19s32.3,6.3,45,19s19,27.7,19,45v288h448c17.3,0,32.3,6.3,45,19s19,27.7,19,45v384
	c0,17.3-6.3,32.3-19,45s-27.7,19-45,19H800v288c0,17.3-6.3,32.3-19,45s-27.7,19-45,19s-32.3-6.3-45-19L147,941
	c-12.7-12.7-19-27.7-19-45S134.3,863.7,147,851z"/>
<path d="M1664,544v704c0,79.3-28.2,147.2-84.5,203.5S1455.3,1536,1376,1536h-320c-8.7,0-16.2-3.2-22.5-9.5s-9.5-13.8-9.5-22.5
	c0-2.7-0.3-9.3-1-20s-0.8-19.5-0.5-26.5s1.3-14.8,3-23.5c1.7-8.7,5-15.2,10-19.5s11.8-6.5,20.5-6.5h320c44,0,81.7-15.7,113-47
	s47-69,47-113V544c0-44-15.7-81.7-47-113s-69-47-113-47h-312l-11.5-1l-11.5-3l-8-5.5l-7-9l-2-13.5c0-2.7-0.3-9.3-1-20
	s-0.8-19.5-0.5-26.5s1.3-14.8,3-23.5c1.7-8.7,5-15.2,10-19.5s11.8-6.5,20.5-6.5h320c79.3,0,147.2,28.2,203.5,84.5
	S1664,464.7,1664,544z"/>
</svg>
