<svg id="Layer_1" data-name="Layer 1" xmlns="http://www.w3.org/2000/svg" viewBox="0 0 512 466.25"><defs><style>.cls-1{font-size:135.64px;font-family:Sansation-Regular, Sansation;}.cls-1,.cls-2,.cls-6{fill:#1d519f;}.cls-2{font-size:40.07px;font-family:TitilliumWeb-Light, Titillium Web;}.cls-3{letter-spacing:0em;}.cls-4{letter-spacing:-0.01em;}.cls-5{letter-spacing:0em;}</style></defs><title>hand_logo</title><text class="cls-1" transform="translate(41.61 385.76) scale(1.02 1)">HAND</text><text class="cls-2" transform="translate(0 455.11)"><tspan class="cls-3">H</tspan><tspan x="26.85" y="0">elping people. Changing li</tspan><tspan class="cls-4" x="446.21" y="0">v</tspan><tspan class="cls-5" x="464.96" y="0">es.</tspan></text><path class="cls-6" d="M197.32,27.71a114,114,0,0,1,47.53,10.41,4.43,4.43,0,0,0,3.86.08,133.57,133.57,0,0,1,33.44-9.33c20.75-2.8,40.45,0,58.4,11.39,14.23,9,24,21.82,30.25,37.33,6.36,15.74,8.29,32.13,7,49a146.52,146.52,0,0,1-9.12,40.65,9.93,9.93,0,0,0-.49,4,16.78,16.78,0,0,1-5.51,13.36c-3.91,3.75-7.41,8-12.17,10.73-.9.52-.81,1.33-.69,2.19.84,5.88-1.09,10.84-5.13,15-2.51,2.61-5.12,5.12-7.67,7.69a17.13,17.13,0,0,1-8.55,4.82,2.85,2.85,0,0,0-2.31,2.11,20.73,20.73,0,0,1-5.08,7.66c-3.67,3.68-7.25,7.46-11.15,10.9a17.5,17.5,0,0,1-6.21,3.61,2.34,2.34,0,0,0-1.84,2c-.7,4.56-3.28,8-6.59,11-2.39,2.18-4.71,4.45-7,6.71a16.53,16.53,0,0,1-20.19,2.71c-1.53-.87-2.35-.59-3.44.57q-6.06,6.4-12.26,12.67c-6.92,7-17.61,7.48-24.85.81-4.29-3.95-9-7.62-11.65-13.09a2.09,2.09,0,0,0-2.07-1.09,18.16,18.16,0,0,1-12.89-6.17c-2.68-3-6.24-5.32-8.22-8.65-2.2-3.74-4.79-5.57-9-6.16-2.92-.41-5.36-2.28-7.46-4.45s-4.2-4.33-6.4-6.39a18,18,0,0,1-5.47-8.93,3,3,0,0,0-2.24-2.25,21.24,21.24,0,0,1-9.44-6c-2-2.15-4.14-4.17-6.22-6.25a16.23,16.23,0,0,1-5.1-12.61,10.15,10.15,0,0,0-1.79-6.11c-10.89-17.61-18.73-36.45-22.4-56.89-3.93-21.94-3.2-43.6,5.69-64.36,11.85-27.65,32.75-43.86,62.66-48.17A66.61,66.61,0,0,1,197.32,27.71Zm22,88.46v0c-6.49,0-13,.12-19.45,0-7.61-.18-12.57-5.19-11.83-11.8.36-3.17,2-5.83,3.92-8.28,3.66-4.71,7.92-8.89,11.94-13.28q14.88-16.26,29.84-32.46c1-1,1.16-1.56-.44-2.12-15.71-5.51-31.69-8.43-48.4-5.83C163.74,45.63,148.37,57,138.44,75.67c-9.79,18.45-11.22,38.26-8.4,58.53,2.57,18.53,9.14,35.71,18.43,51.88,1.34,2.32,1.33,2.33,3.17.43,11.89-12.3,23.72-24.66,35.69-36.88,6.89-7,17.09-7,24.07-.08,2.31,2.28,4.56,4.62,6.89,6.87a18.14,18.14,0,0,1,5.54,9.14,2.28,2.28,0,0,0,1.92,1.93,18.08,18.08,0,0,1,9.34,5.64c2.16,2.31,4.43,4.52,6.71,6.72a15.83,15.83,0,0,1,4.57,7.92,2.57,2.57,0,0,0,2.15,2.22,17.79,17.79,0,0,1,8.62,5.14c2.29,2.4,4.65,4.73,7,7.08a16.84,16.84,0,0,1,4.75,8.08,2.92,2.92,0,0,0,2.51,2.46A15.23,15.23,0,0,1,279,217a242.13,242.13,0,0,1,16.67,17.83c1.81,2.24,3.48,2.39,5.54.44q5.49-5.22,10.87-10.55c1.79-1.76,1.75-2.82,0-4.61q-21.53-22.43-43.05-44.86c-5.43-5.65-10.91-11.26-16.32-16.93-3.09-3.23-3.29-7.49-.61-10.13,2.92-2.87,7-2.68,10.21.61q10,10.19,19.82,20.48,19.72,20.55,39.44,41.12c2.07,2.15,3.9,2.14,6,0,2.48-2.42,4.94-4.87,7.35-7.36s2.31-3.8.06-6.21c-2.62-2.81-5.25-5.62-7.94-8.35q-21.45-21.75-42.91-43.45c-3.6-3.65-7.18-7.32-10.64-11.1a6.47,6.47,0,0,1,0-9,6.63,6.63,0,0,1,9-.77,18.81,18.81,0,0,1,2.33,2.13c3.86,3.93,7.68,7.88,11.53,11.81q11,11.24,22,22.45,10.63,10.8,21.34,21.52c2.46,2.47,3.5,2.41,6-.06,2.22-2.15,4.49-4.25,6.68-6.43,3-3,3-4.33.15-7.38q-17.86-18.9-35.72-37.79Q295.44,107.69,273.86,85c-1.91-2-1.87-1.94-3.73.12-8.48,9.4-17,18.75-25.49,28.16a8.41,8.41,0,0,1-6.78,2.93C231.68,116.09,225.49,116.17,219.31,116.17ZM166.4,215.7c1.46,0,2.32-.95,3.21-1.87q14.7-15.15,29.39-30.32c3.46-3.57,6.94-7.12,10.32-10.76,2.31-2.48,2.25-3.78-.08-6.18s-4.54-4.63-6.88-6.86-3.85-2.09-6,.08c-1.23,1.22-2.35,2.54-3.55,3.79q-18.18,18.87-36.36,37.73c-2,2.09-2,3.8,0,5.88,2.37,2.43,4.81,4.78,7.21,7.17A4,4,0,0,0,166.4,215.7ZM189,238.15c1.25.09,2-.76,2.82-1.57q7.89-8.1,15.76-16.21,12-12.44,24-24.91c2.68-2.79,2.64-4-.13-6.8-2-2-3.94-3.95-5.91-5.92-2.93-2.92-4.06-3-6.89-.05-2.27,2.31-4.47,4.69-6.72,7q-16.44,17-32.88,33.92c-2.2,2.27-2.2,3.81-.06,6,2.31,2.38,4.68,4.7,7,7A4,4,0,0,0,189,238.15ZM214,258c1.47,0,2.36-.89,3.26-1.82l22.31-23c5-5.19,10.09-10.36,15.08-15.58,2.19-2.29,2.16-3.57,0-5.8S250,207.23,247.7,205c-2.57-2.53-4.11-2.44-6.63.21q-7.15,7.53-14.39,15Q215.59,231.6,204.49,243c-2.58,2.66-2.55,4.25.08,6.93,2.27,2.3,4.58,4.58,6.87,6.87A3.17,3.17,0,0,0,214,258ZM267,225.64a4.06,4.06,0,0,0-2.89,1.58c-1.94,2-3.83,4.05-5.76,6.05q-14.22,14.7-28.44,29.38c-2.55,2.64-2.47,4.25.24,6.85,2.07,2,4.15,3.94,6.19,5.94,2.84,2.79,3.71,2.84,6.49,0Q255,263,267,250.45c3.31-3.41,6.68-6.74,10-10.18,2.11-2.21,2.05-3.92-.06-6.08-2.37-2.42-4.79-4.79-7.19-7.19A3.62,3.62,0,0,0,267,225.64ZM287.28,251l-10,9.08A63.91,63.91,0,0,0,287.28,251Z" transform="translate(0 -27.67)"/></svg>